<svg xmlns="http://www.w3.org/2000/svg" width="49" height="143"><title>Rocket new</title><g fill="none" stroke="#217274"><path d="M14.07 73.88l11 68.76L34.7 74.3l-20.63-.42zM16.9 73.47s-.83 25 7.17 39.67V74.3l-7.16-.83zM31.24 73.47s.83 25-7.17 39.67V74.3l7.17-.83zM11.16 40.23s-13.5 8.68-10.12 34.4c0 0 9.7-13.48 13.03-3.48l4-9.07-6.9-21.85zm26.1 0s13.5 8.68 10.13 34.4c0 0-9.7-13.48-13.03-3.48l-4-9.07 6.9-21.85zM24.07.9s21 25.9 10.62 72.9H24.56L24.07.92zM24.07.9s-20.38 25.9-10 72.9h10.5L24.07.92zM24.57 40.97S20 40.6 20 46.3s4.57 34.82 4.57 34.82V40.97zM24.33 40.97s4.58.62 4.58 6.32-4.33 33.82-4.33 33.82l-.24-40.15z"/></g></svg>